<?xml version="1.0" encoding="UTF-8" standalone="no"?>
<svg
   xmlns:dc="http://purl.org/dc/elements/1.1/"
   xmlns:cc="http://creativecommons.org/ns#"
   xmlns:rdf="http://www.w3.org/1999/02/22-rdf-syntax-ns#"
   xmlns:svg="http://www.w3.org/2000/svg"
   xmlns="http://www.w3.org/2000/svg"
   xmlns:sodipodi="http://sodipodi.sourceforge.net/DTD/sodipodi-0.dtd"
   xmlns:inkscape="http://www.inkscape.org/namespaces/inkscape"
   width="35.201336"
   height="30.845718"
   viewBox="0 0 35.201336 30.845718"
   fill="none"
   version="1.1"
   id="svg4"
   sodipodi:docname="mailto.svg"
   inkscape:version="1.0.2 (e86c870879, 2021-01-15)">
  <metadata
     id="metadata10">
    <rdf:RDF>
      <cc:Work
         rdf:about="">
        <dc:format>image/svg+xml</dc:format>
        <dc:type
           rdf:resource="http://purl.org/dc/dcmitype/StillImage" />
        <dc:title></dc:title>
      </cc:Work>
    </rdf:RDF>
  </metadata>
  <defs
     id="defs8" />
  <sodipodi:namedview
     pagecolor="#ffffff"
     bordercolor="#666666"
     borderopacity="1"
     objecttolerance="10"
     gridtolerance="10"
     guidetolerance="10"
     inkscape:pageopacity="0"
     inkscape:pageshadow="2"
     inkscape:window-width="1898"
     inkscape:window-height="1019"
     id="namedview6"
     showgrid="false"
     inkscape:zoom="6.8384669"
     inkscape:cx="5.159929"
     inkscape:cy="30.872038"
     inkscape:window-x="1290"
     inkscape:window-y="49"
     inkscape:window-maximized="0"
     inkscape:current-layer="svg4" />
  <path
     fill-rule="evenodd"
     clip-rule="evenodd"
     d="m 33.407135,13.054174 c -0.2374,1.644542 -0.8,3.207602 -1.6337,4.644952 0.0625,0.35586 0.0946,0.71558 0.0946,1.07684 0,1.2547 -0.3636,2.45551 -1.037,3.54652 -0.3362,0.54456 -0.4227,1.18266 -0.4559,1.60426 -0.0382,0.4832 -0.0253,1.0119 0.0092,1.5198 0.0387,0.5698 0.1087,1.168 0.1889,1.7323 -0.6505,-0.1897 -1.3556,-0.3802 -2.0285,-0.532 -0.5597,-0.1263 -1.1324,-0.2339 -1.6511,-0.2875 -0.4525,-0.0467 -1.1064,-0.0829 -1.6911,0.1061 -1.2785,0.4133 -2.6853,0.6439 -4.1679,0.6439 -1.7632,0 -3.38249,-0.313 -4.8019,-0.8567 -0.34141,0.0155 -0.68531,0.0233 -1.03145,0.0233 -2.00769,0 -3.94,-0.264 -5.7478892,-0.752 2.6282592,3.0398 6.9610492,4.9187 11.5812392,4.9187 1.8049,0 3.5372,-0.2771 5.1337,-0.7863 0.0028,10e-5 0.0079,0 0.0154,-2e-4 0.041,-8e-4 0.1548,-0.003 0.3674,0.0189 0.3343,0.0345 0.7642,0.1116 1.2601,0.2234 0.9873,0.2227 2.0967,0.5514 2.9613,0.8258 1.8336,0.5821 3.6102,-1.018 3.2825,-2.8787 -0.141,-0.8008 -0.2876,-1.7782 -0.3451,-2.6249 -0.0289,-0.4257 -0.0321,-0.7752 -0.0118,-1.0316 0.0084,-0.1063 0.0191,-0.1729 0.0259,-0.2083 0.9377,-1.55334 1.4773,-3.3219 1.4773,-5.20478 0,-2.12258 -0.6593,-4.06086 -1.7942,-5.721792 z"
     fill="#FF5A30"
     id="path2"
     style="fill:#065b98;fill-opacity:1" />
  <path
     fill-rule="evenodd"
     clip-rule="evenodd"
     d="m 7.0816364,6.1636021 c -2.2466001,1.71799 -3.4950701,3.9731899 -3.4950701,6.3363899 0,1.1784 0.30677,2.3133 0.8823,3.3687 0.21921,0.402 0.2814,0.8166 0.30364,1.0973 0.02425,0.3061 0.01216,0.6207 -0.01446,0.9149 -0.05329,0.5889 -0.18042,1.2562 -0.3329,1.9135 -0.17837,0.7688 -0.40693,1.5888 -0.63885,2.3586 0.88042,-0.32 1.84269,-0.6479 2.75494,-0.9141 0.7372801,-0.2151 1.4818501,-0.4017 2.1445201,-0.5065 0.5708499,-0.0903 1.3992496,-0.179 2.1124496,0.0678 1.6005,0.5537 3.391,0.8665 5.2884,0.8665 3.5786,0 6.7568,-1.1111 9.0049,-2.8303 2.2466,-1.718 3.4951,-3.9732 3.4951,-6.3364 0,-2.3632 -1.2485,-4.6183999 -3.4951,-6.3363899 -2.2481,-1.71916 -5.4263,-2.83027 -9.0049,-2.83027 -3.5787,0 -6.7568397,1.11111 -9.0049696,2.83027 z M 5.0567963,3.5157421 C 7.9359964,1.314012 11.841106,0 16.086606,0 c 4.2454,0 8.1505,1.314012 11.0297,3.5157421 2.8807,2.20292 4.8036,5.36436 4.8036,8.9842499 0,3.6199 -1.9229,6.7813 -4.8036,8.9843 -2.8792,2.2017 -6.7843,3.5157 -11.0297,3.5157 -2.2385,0 -4.3766,-0.3649 -6.3178997,-1.0289 -0.002,0.0054 -0.15943,-0.01 -0.56235,0.0537 -0.46442,0.0735 -1.0572299,0.2173 -1.7315599,0.4141 -1.3424401,0.3916 -2.8500201,0.9457 -3.9983401,1.3926 -1.98938,0.7742 -4.015968,-1.1364 -3.345701,-3.1716 0.35525,-1.0787 0.774231,-2.4418 1.047291,-3.6188 0.13756,-0.5929 0.22682,-1.0914 0.26023,-1.4606 0.01159,-0.1282 0.01459,-0.2216 0.01392,-0.2847 -0.767137,-1.4659 -1.198966,-3.0871 -1.198966,-4.7958 0,-3.6198899 1.922836,-6.7813299 4.803566,-8.9842499 z m -3.61009,13.6891499 c 1.6e-4,-2e-4 9.7e-4,0.0043 0.00195,0.0139 -0.00162,-0.0089 -0.00211,-0.0137 -0.00195,-0.0139 z"
     fill="#ff5a30"
     id="path2-3"
     style="fill:#065b98;fill-opacity:1" />
</svg>
