<?xml version="1.0" encoding="UTF-8" standalone="no"?>
<svg
   xmlns:dc="http://purl.org/dc/elements/1.1/"
   xmlns:cc="http://creativecommons.org/ns#"
   xmlns:rdf="http://www.w3.org/1999/02/22-rdf-syntax-ns#"
   xmlns:svg="http://www.w3.org/2000/svg"
   xmlns="http://www.w3.org/2000/svg"
   xmlns:sodipodi="http://sodipodi.sourceforge.net/DTD/sodipodi-0.dtd"
   xmlns:inkscape="http://www.inkscape.org/namespaces/inkscape"
   width="24"
   height="38"
   viewBox="0 0 24 38"
   fill="none"
   version="1.1"
   id="svg4"
   sodipodi:docname="phone.svg"
   inkscape:version="1.0.2 (e86c870879, 2021-01-15)">
  <metadata
     id="metadata10">
    <rdf:RDF>
      <cc:Work
         rdf:about="">
        <dc:format>image/svg+xml</dc:format>
        <dc:type
           rdf:resource="http://purl.org/dc/dcmitype/StillImage" />
        <dc:title></dc:title>
      </cc:Work>
    </rdf:RDF>
  </metadata>
  <defs
     id="defs8" />
  <sodipodi:namedview
     pagecolor="#ffffff"
     bordercolor="#666666"
     borderopacity="1"
     objecttolerance="10"
     gridtolerance="10"
     guidetolerance="10"
     inkscape:pageopacity="0"
     inkscape:pageshadow="2"
     inkscape:window-width="1898"
     inkscape:window-height="1019"
     id="namedview6"
     showgrid="false"
     inkscape:zoom="19.342105"
     inkscape:cx="-0.12380952"
     inkscape:cy="19"
     inkscape:window-x="1290"
     inkscape:window-y="49"
     inkscape:window-maximized="0"
     inkscape:current-layer="svg4" />
  <path
     fill-rule="evenodd"
     clip-rule="evenodd"
     d="M6.16634 3.86947C4.78563 3.86947 3.66634 4.98875 3.66634 6.36947V31.6299C3.66634 33.0106 4.78563 34.1299 6.16634 34.1299H17.833C19.2137 34.1299 20.333 33.0106 20.333 31.6299V6.36947C20.333 4.98875 19.2137 3.86947 17.833 3.86947H17.694L17.2881 4.84355C17.0293 5.46458 16.4225 5.86909 15.7497 5.86909H8.24968C7.57688 5.86909 6.97006 5.46458 6.71126 4.84355L6.30531 3.86947H6.16634ZM0.333008 6.36947C0.333008 3.14781 2.94468 0.536133 6.16634 0.536133H17.833C21.0547 0.536133 23.6663 3.14781 23.6663 6.36947V31.6299C23.6663 34.8515 21.0547 37.4632 17.833 37.4632H6.16634C2.94468 37.4632 0.333008 34.8515 0.333008 31.6299V6.36947Z"
     fill="#FF5A30"
     id="path2"
     style="fill:#065b98;fill-opacity:1" />
</svg>
