<?xml version="1.0" standalone="no"?>
<!DOCTYPE svg PUBLIC "-//W3C//DTD SVG 20010904//EN"
 "http://www.w3.org/TR/2001/REC-SVG-20010904/DTD/svg10.dtd">
<svg version="1.0" xmlns="http://www.w3.org/2000/svg"
 width="800.000000pt" height="566.000000pt" viewBox="0 0 800.000000 566.000000"
 preserveAspectRatio="xMidYMid meet">

<g transform="translate(0.000000,566.000000) scale(0.100000,-0.100000)"
fill="#000000" stroke="none">
<path d="M3388 5088 c-9 -7 -18 -25 -20 -40 -3 -24 -59 -65 -444 -326 l-442
-298 -246 1 -246 0 0 -97 0 -98 185 0 185 0 0 -145 0 -146 103 3 102 3 3 143
3 142 334 0 c212 0 336 -4 340 -10 3 -5 24 -10 46 -10 l39 0 0 -44 c0 -36 -4
-45 -22 -49 -20 -6 -21 -9 -14 -104 19 -283 20 -343 2 -343 -15 0 -16 -100
-16 -1295 l0 -1295 -80 0 -80 0 0 -260 0 -260 305 0 305 0 0 260 0 259 -77 3
-78 3 -3 1293 c-2 1164 -4 1292 -18 1292 -24 0 -13 169 20 300 33 135 33 150
1 150 -23 0 -25 4 -25 45 0 38 3 45 19 45 11 0 23 5 27 11 5 9 127 10 473 5
363 -6 1426 -25 1439 -26 1 0 2 -11 2 -25 0 -13 7 -28 17 -33 15 -9 16 -40 11
-350 -6 -338 -6 -341 15 -355 21 -14 21 -15 3 -41 -11 -18 -15 -37 -12 -53 6
-20 12 -24 39 -21 28 3 32 7 34 33 2 27 2 28 -7 8 -5 -13 -16 -23 -25 -23 -20
0 -19 7 5 37 11 14 20 34 20 44 0 11 7 19 15 19 23 0 25 31 16 290 l-8 245 -1
-172 -2 -173 -40 0 -40 0 0 253 0 254 26 13 c40 22 58 4 65 -66 l6 -59 1 58
c2 43 6 57 17 57 10 0 15 10 15 30 0 30 1 30 55 30 34 0 65 -6 80 -16 22 -14
28 -15 48 -2 15 10 39 14 74 11 43 -4 53 -1 61 14 9 15 0 32 -49 90 l-59 72
-213 1 c-116 2 -225 4 -242 5 -16 2 -141 4 -276 4 l-247 1 -12 30 c-15 37 -46
56 -64 41 -9 -8 -179 64 -642 272 -346 156 -643 289 -660 296 -22 9 -34 21
-37 40 -8 39 -74 56 -109 29z m455 -227 c704 -316 962 -432 966 -437 3 -3 1
-12 -5 -22 -10 -15 -39 -16 -305 -14 -162 1 -396 5 -520 8 -148 4 -232 3 -245
-4 -10 -5 -37 -35 -59 -66 -42 -58 -69 -70 -78 -36 -3 13 -14 20 -31 20 -31 0
-27 -17 -62 327 -26 255 -27 373 -3 373 6 0 159 -67 342 -149z m-457 92 c5
-31 -3 -144 -20 -318 -36 -353 -29 -322 -82 -327 l-44 -3 0 57 c0 32 -3 58 -7
59 -5 0 -161 1 -348 3 -187 2 -344 4 -350 5 -5 0 19 21 55 45 542 367 776 525
782 525 4 1 10 -20 14 -46z m62 -40 c-2 -7 -8 -9 -14 -5 -6 4 -8 26 -6 52 l5
45 9 -40 c5 -22 7 -45 6 -52z m-7 -94 c9 -18 7 -25 -10 -42 l-21 -21 0 42 c0
46 13 54 31 21z m31 -119 l3 -60 -35 35 -34 34 24 26 c13 14 27 25 31 25 4 0
9 -27 11 -60z m-2 -109 c0 -5 -20 -31 -45 -58 l-46 -48 6 75 c10 118 12 120
51 77 19 -20 34 -41 34 -46z m24 -118 c3 -43 9 -97 12 -120 4 -24 2 -43 -2
-43 -5 0 -35 29 -67 65 l-59 65 49 55 c26 29 51 54 54 54 3 1 9 -34 13 -76z
m-1324 -83 c0 -5 -8 -10 -19 -10 -10 0 -30 -9 -44 -20 -14 -11 -39 -20 -56
-20 -28 0 -31 3 -31 30 l0 30 75 0 c43 0 75 -4 75 -10z m170 -20 c0 -27 -3
-30 -33 -30 -21 0 -41 8 -52 20 -10 11 -26 20 -37 20 -10 0 -18 5 -18 10 0 6
30 10 70 10 l70 0 0 -30z m80 14 c-8 -8 -22 -20 -32 -25 -15 -8 -18 -6 -18 16
0 21 4 25 31 25 27 0 30 -2 19 -16z m90 -14 c0 -30 0 -30 -57 -30 -61 0 -61 1
-11 36 47 33 68 31 68 -6z m170 0 l0 -30 -70 0 -70 0 0 30 0 30 70 0 70 0 0
-30z m170 0 l0 -30 -70 0 -70 0 0 30 0 30 70 0 70 0 0 -30z m170 0 l0 -30 -70
0 -70 0 0 30 0 30 70 0 70 0 0 -30z m194 15 c13 -36 -3 -45 -85 -45 l-79 0 0
30 0 30 79 0 c61 0 80 -3 85 -15z m246 -72 c0 -2 -22 -3 -50 -3 -45 0 -50 2
-50 23 0 12 3 32 6 45 7 23 8 22 50 -19 24 -24 44 -44 44 -46z m431 50 c-5
-10 -21 -33 -34 -51 l-24 -32 -17 25 c-9 14 -23 36 -32 50 l-16 25 66 0 c61 0
66 -2 57 -17z m179 12 c0 -10 -53 -85 -59 -85 -6 0 -25 32 -49 83 -2 4 21 7
52 7 31 0 56 -2 56 -5z m165 -32 c-24 -41 -44 -67 -48 -62 -1 2 -15 23 -30 47
l-27 42 60 0 61 0 -16 -27z m176 10 c-6 -10 -21 -31 -34 -48 l-24 -29 -22 42
c-11 22 -21 44 -21 47 0 3 25 5 55 5 50 0 55 -2 46 -17z m209 11 c0 -3 -15
-25 -34 -50 l-34 -45 -31 45 c-17 24 -31 47 -31 50 0 3 29 6 65 6 36 0 65 -3
65 -6z m190 -4 c0 -10 -47 -90 -53 -90 -5 0 -67 87 -67 94 0 3 27 6 60 6 34 0
60 -4 60 -10z m-1046 -41 c15 -22 25 -43 23 -45 -3 -3 -30 -4 -61 -2 l-57 3
31 43 c18 23 33 42 35 42 1 0 15 -18 29 -41z m1236 36 c0 -10 -52 -85 -59 -85
-3 0 -12 10 -20 23 -8 12 -21 32 -29 45 -14 22 -14 22 47 22 33 0 61 -2 61 -5z
m163 -45 c-28 -50 -28 -50 -44 -28 -9 12 -24 34 -33 50 l-17 28 61 0 61 0 -28
-50z m217 44 c0 -13 -52 -94 -59 -90 -3 2 -21 25 -39 50 l-33 46 65 0 c36 0
66 -3 66 -6z m223 -4 c10 0 -51 -90 -62 -90 -7 0 -55 49 -81 84 -14 18 -12 19
60 13 41 -4 79 -7 83 -7z m221 -28 c-9 -16 -24 -38 -33 -50 l-16 -22 -50 50
-49 50 82 0 83 0 -17 -28z m-1869 -12 c22 -42 19 -50 -17 -50 -55 0 -64 13
-39 49 28 39 36 39 56 1z m174 -4 c12 -18 21 -36 21 -40 0 -3 -22 -6 -50 -6
-27 0 -50 3 -50 6 0 13 42 74 50 74 5 0 18 -15 29 -34z m171 -6 l20 -40 -45 0
c-25 0 -45 2 -45 5 0 6 44 75 47 75 2 0 12 -18 23 -40z m192 -8 c21 -36 14
-40 -55 -32 l-48 5 32 38 c34 41 42 40 71 -11z m198 3 l31 -45 -66 0 c-36 0
-65 3 -65 6 0 7 60 84 65 84 2 0 18 -20 35 -45z m184 5 c14 -22 26 -42 26 -45
0 -3 -25 -5 -55 -5 l-55 0 28 45 c15 25 27 45 28 45 1 0 13 -18 28 -40z m216
-45 c0 -6 -21 -9 -55 -7 -58 4 -58 3 -22 56 l21 29 28 -34 c15 -18 28 -38 28
-44z m168 30 l32 -45 -60 0 c-33 0 -60 2 -60 6 0 9 45 84 51 84 3 0 19 -20 37
-45z m208 -43 c-20 -2 -52 -2 -71 0 l-35 3 26 43 26 44 45 -44 44 -43 -35 -3z
m256 4 c9 -16 8 -18 -8 -11 -11 4 -43 10 -72 14 l-52 6 26 38 26 39 35 -34
c19 -18 39 -42 45 -52z m218 2 c10 -16 6 -18 -30 -18 -22 0 -40 5 -40 10 0 6
-9 10 -20 10 -25 0 -25 5 1 47 l21 34 29 -33 c16 -18 34 -41 39 -50z m-3860
42 c0 -27 -3 -30 -30 -30 -27 0 -30 3 -30 30 0 27 3 30 30 30 27 0 30 -3 30
-30z m235 20 c-3 -5 -10 -10 -16 -10 -5 0 -9 5 -9 10 0 6 7 10 16 10 8 0 12
-4 9 -10z m195 -20 l0 -30 -70 0 -70 0 0 30 0 30 70 0 70 0 0 -30z m170 0 l0
-30 -70 0 -70 0 0 30 0 30 70 0 70 0 0 -30z m170 0 l0 -30 -70 0 -70 0 0 30 0
30 70 0 70 0 0 -30z m170 0 l0 -30 -70 0 -70 0 0 30 0 30 70 0 70 0 0 -30z
m194 8 c-1 -13 -3 -26 -3 -30 -1 -5 -37 -8 -81 -8 l-80 0 0 30 0 30 83 0 c81
0 84 -1 81 -22z m-874 -18 c0 -15 -7 -20 -25 -20 -29 0 -32 8 -7 26 24 19 32
17 32 -6z m1087 -97 c-16 -16 -18 -16 -34 0 -16 16 -15 17 17 17 32 0 33 -1
17 -17z m93 -18 c0 -34 -1 -35 -38 -35 -52 0 -57 9 -25 42 38 40 63 37 63 -7z
m-142 -7 c18 -18 15 -28 -8 -28 -13 0 -20 7 -20 20 0 23 10 26 28 8z m92 -545
c0 -7 -133 -83 -145 -83 -7 0 -6 75 2 83 9 10 143 9 143 0z m60 -53 l0 -50
-82 0 c-52 0 -78 4 -72 9 7 8 136 84 152 90 1 1 2 -21 2 -49z m0 -120 l0 -50
-58 33 c-32 17 -69 40 -83 49 -23 17 -22 17 59 17 l82 1 0 -50z m-125 -11 c41
-22 75 -44 75 -49 0 -4 -35 -7 -77 -5 l-78 2 -3 47 c-2 25 0 46 3 46 3 0 39
-18 80 -41z m85 -83 c0 -5 -159 -96 -166 -96 -2 0 -4 23 -4 50 l0 50 85 0 c47
0 85 -2 85 -4z m40 -61 l0 -45 -82 0 -83 1 80 44 c44 25 81 45 83 45 1 0 2
-20 2 -45z m0 -120 c0 -25 -3 -45 -6 -45 -7 0 -107 55 -139 77 -17 11 -9 13
63 13 l82 0 0 -45z m-118 -16 c40 -23 75 -43 77 -45 2 -2 -35 -4 -82 -4 l-87
0 0 45 c0 25 4 45 9 45 5 0 42 -19 83 -41z m77 -83 c-12 -10 -152 -86 -160
-86 -5 0 -9 20 -9 45 l0 45 87 0 c47 0 84 -2 82 -4z m41 -61 l0 -45 -82 0
c-45 0 -79 2 -77 4 8 8 144 85 152 85 4 1 7 -19 7 -44z m0 -121 l0 -45 -77 42
c-43 23 -80 44 -82 46 -2 1 32 3 77 3 l82 0 0 -46z m-45 -55 c5 -5 -27 -9 -78
-9 l-87 0 0 51 0 51 78 -42 c42 -23 81 -46 87 -51z m-5 -43 c0 -5 -146 -86
-155 -86 -3 0 -5 20 -5 45 l0 45 80 0 c44 0 80 -2 80 -4z m47 -103 c-3 -2 -40
-3 -83 -1 l-79 3 80 46 80 47 3 -45 c2 -25 1 -47 -1 -50z m3 -72 l0 -49 -72
39 c-40 22 -77 44 -82 50 -6 5 21 9 72 9 l82 0 0 -49z m-124 -12 c41 -23 73
-44 70 -46 -7 -7 -116 -11 -138 -5 -14 3 -18 15 -18 48 0 24 2 44 5 44 3 0 40
-19 81 -41z m79 -88 c-6 -5 -45 -28 -87 -51 l-78 -42 0 51 0 51 87 0 c53 0 83
-4 78 -9z m45 -56 l0 -45 -82 0 -83 1 80 44 c44 25 81 45 83 45 1 0 2 -20 2
-45z m0 -120 c0 -25 -3 -45 -6 -45 -7 0 -107 55 -139 77 -17 11 -9 13 63 13
l82 0 0 -45z m-118 -16 c40 -23 75 -43 77 -45 2 -2 -35 -4 -82 -4 l-87 0 0 45
c0 25 4 45 9 45 5 0 42 -19 83 -41z m77 -83 c-12 -10 -152 -86 -160 -86 -5 0
-9 20 -9 45 l0 45 87 0 c47 0 84 -2 82 -4z m41 -61 l0 -45 -82 0 c-45 0 -79 2
-77 4 8 8 144 85 152 85 4 1 7 -19 7 -44z m0 -120 l0 -45 -37 19 c-21 10 -58
31 -83 45 l-45 26 83 0 82 0 0 -45z m-45 -56 c5 -5 -27 -9 -78 -9 l-87 0 0 51
0 51 78 -42 c42 -23 81 -46 87 -51z m-1 -41 c-5 -7 -150 -88 -159 -88 -7 0 -6
85 1 93 9 8 163 4 158 -5z m43 -105 c-3 -2 -40 -3 -83 -1 l-79 3 80 46 80 47
3 -45 c2 -25 1 -47 -1 -50z m3 -72 l0 -49 -72 39 c-40 22 -77 44 -82 50 -6 5
21 9 72 9 l82 0 0 -49z m-124 -12 c41 -22 74 -42 74 -45 0 -2 -36 -4 -80 -4
l-80 0 0 45 c0 25 3 45 6 45 4 0 40 -18 80 -41z m79 -88 c-6 -5 -45 -28 -87
-51 l-78 -42 0 51 0 51 87 0 c51 0 83 -4 78 -9z m45 -56 l0 -45 -82 0 -83 1
80 44 c44 25 81 45 83 45 1 0 2 -20 2 -45z m0 -120 c0 -25 -2 -45 -5 -45 -6 0
-147 79 -154 86 -2 2 32 4 77 4 l82 0 0 -45z m-110 -20 l75 -45 -87 0 -88 0 0
45 c0 30 4 45 13 45 6 -1 46 -21 87 -45z m69 -79 c-12 -10 -152 -86 -160 -86
-5 0 -9 20 -9 45 l0 45 87 0 c47 0 84 -2 82 -4z m41 -61 l0 -45 -82 0 c-45 0
-79 2 -77 4 9 9 145 86 152 86 4 0 7 -20 7 -45z m0 -121 l0 -45 -77 42 c-43
23 -80 44 -82 46 -2 1 32 3 77 3 l82 0 0 -46z m-45 -55 c5 -5 -25 -9 -78 -9
l-87 0 0 51 0 51 78 -42 c42 -23 81 -46 87 -51z m43 -48 c3 -8 -27 -11 -102
-11 -93 0 -118 5 -102 21 10 10 200 1 204 -10z"/>
<path d="M5631 3994 c0 -11 3 -14 6 -6 3 7 2 16 -1 19 -3 4 -6 -2 -5 -13z"/>
</g>
</svg>
