<?xml version="1.0" encoding="UTF-8" standalone="no"?>
<svg width="5529px" height="4386px" version="1.1" xmlns="http://www.w3.org/2000/svg">
<title>logo_bsp</title>
<defs></defs>

<!-- Первый дом -->

<polygon
   points="624.4922 1061.0326 1310.6043 946.0306 1717.0424 1054.4901 1717.0424 3240.9944 1310.6043 3407.3801 624.4922 3257.7162"
   fill="#000000"
   stroke="#000000"
/>

<g fill="#ffffff">
   <polygon points="650.3615 1203.1727 783.4722 1184.2698 783.4722 1345.3255 650.3615 1360.5659" />
   <polygon points="823.6769 1178.5604 1046.6762 1146.8926 1046.6762 1315.1901 823.6769 1340.7223" />
   <polygon points="1085.963 1141.3136 1257.6568 1116.9316 1257.6568 1291.034 1085.963 1310.692" />
   <polygon points="650.3615 1485.9024 783.4722 1474.3936 783.4722 1628.0558 650.3615 1636.867" />
   <polygon points="823.6769 1470.9175 1046.6762 1451.6369 1046.6762 1610.6332 823.6769 1625.3945" />
   <polygon points="1085.963 1448.2401 1257.6568 1433.3955 1257.6568 1596.6676 1085.963 1608.0327" />
   <polygon points="650.3615 1755.9785 783.4722 1749.9389 783.4722 1896.9387 650.3615 1899.6354" />
   <polygon points="823.6769 1748.1147 1046.6762 1737.9967 1046.6762 1891.6062 823.6769 1896.1241" />
   <polygon points="1085.963 1736.2142 1257.6568 1728.4241 1257.6568 1887.3319 1085.963 1890.8103" />
   <polygon points="650.3615 2020.2408 783.4722 2020.3505 783.4722 2177.7382 650.3615 2174.0496" />
   <polygon points="823.6769 2020.3836 1046.6762 2020.5672 1046.6762 2185.0318 823.6769 2178.8523" />
   <polygon points="1085.963 2020.5995 1257.6568 2020.7409 1257.6568 2190.8783 1085.963 2186.1205" />
   <polygon points="650.3615 2279.3956 783.4722 2285.5355 783.4722 2443.2483 650.3615 2433.5219" />
   <polygon points="823.6769 2287.39 1046.6762 2297.6761 1046.6762 2462.4804 823.6769 2446.186" />
   <polygon points="1085.963 2299.4883 1257.6568 2307.4079 1257.6568 2477.8966 1085.963 2465.351" />
   <polygon points="650.3615 2548.0598 783.4722 2560.4513 783.4722 2713.3589 650.3615 2697.4902" />
   <polygon points="823.6769 2564.194 1046.6762 2584.9534 1046.6762 2744.7364 823.6769 2718.1518 " />
   <polygon points="1085.963 2588.6107 1257.6568 2604.5939 1257.6568 2769.8881 1085.963 2749.4199" />
   <polygon points="650.3615 2820.2954 783.4722 2839.0216 783.4722 2992.6803 650.3615 2970.4599" />
   <polygon points="823.6769 2844.6776 1046.6762 2876.0495 1046.6762 3036.6173 823.6769 2999.3917" />
   <polygon points="1085.963 2881.5764 1257.6568 2905.7305 1257.6568 3071.8366 1085.963 3043.1755" />
   <polygon points="650.3615 3084.5743 783.4722 3109.45 783.4722 3259.6492 650.3615 3231.3579" />
   <polygon points="823.6769 3116.9634 1046.6762 3158.6375 1046.6762 3315.5904 823.6769 3268.1943" />
   <polygon points="1085.963 3165.9794 1257.6568 3198.0656 1257.6568 3360.432 1085.963 3323.9403" />
</g>

<!-- Второй дом -->

<polygon
   points="1807.6728 1348.0504 2134.2313 1272.8585 2630.748 1352.1234 2630.748 2985.8527 2134.2313 3094.5482 1807.6728 2976.9846"
   fill="#000000"
   stroke="#000000"/>

<g fill="#ffffff">
   <polygon points="2166.0851 1401.3646 2281.3698 1416.7924 2281.3698 1548.1574 2166.0851 1535.976" />
   <polygon points="2313.1315 1421.0428 2480.1726 1443.3968 2480.1726 1569.1637 2313.1315 1551.5135" />
   <polygon points="2502.5267 1446.3883 2610.7483 1460.8709 2610.7483 1582.9608 2502.5267 1571.5257" />
   <polygon points="2166.0851 1628.2118 2281.3698 1638.1688 2281.3698 1772.1116 2166.0851 1765.4646" />
   <polygon points="2313.1315 1640.912 2480.1726 1655.3392 2480.1726 1783.574 2313.1315 1773.9429" />
   <polygon points="2502.5267 1657.2699 2610.7483 1666.6169 2610.7483 1791.1026 2502.5267 1784.8629" />
   <polygon points="2166.0851 1838.7755 2281.3698 1843.6545 2281.3698 1968.8557 2166.0851 1967.0707" />
   <polygon points="2313.1315 1844.9986 2480.1726 1852.068 2480.1726 1971.9337 2313.1315 1969.3474" />
   <polygon points="2502.5267 1853.0141 2610.7483 1857.5941 2610.7483 1973.9554 2502.5267 1972.2798" />
   <polygon points="2166.0851 2070.8562 2281.3698 2070.1382 2281.3698 2194.3972 2166.0851 2198.1859" />
   <polygon points="2313.1315 2069.9404 2480.1726 2068.9 2480.1726 2187.8637 2313.1315 2193.3534" />
   <polygon points="2502.5267 2068.7608 2610.7483 2068.0868 2610.7483 2183.5724 2502.5267 2187.1291" />
   <polygon points="2166.0851 2284.2097 2281.3698 2278.3464 2281.3698 2403.0295 2166.0851 2411.9741" />
   <polygon points="2313.1315 2276.731 2480.1726 2268.2354 2480.1726 2387.6051 2313.1315 2400.5652" />
   <polygon points="2502.5267 2267.0984 2610.7483 2261.5943 2610.7483 2377.4741 2502.5267 2385.8707" />
   <polygon points="2166.0851 2506.6301 2281.3698 2495.4028 2281.3698 2619.159 2166.0851 2633.4446" />
   <polygon points="2313.1315 2492.3096 2480.1726 2476.0418 2480.1726 2594.5241 2313.1315 2615.2232" />
   <polygon points="2502.5267 2473.8648 2610.7483 2463.3254 2610.7483 2578.3436 2502.5267 2591.754" />
   <polygon points="2166.0851 2719.6193 2281.3698 2703.2555 2281.3698 2832.8427 2166.0851 2852.409" />
   <polygon points="2313.1315 2698.7471 2480.1726 2675.0368 2480.1726 2799.1016 2313.1315 2827.4521" />
   <polygon points="2502.5267 2671.8637 2610.7483 2656.5024 2610.7483 2776.9401 2502.5267 2795.3076" />
   <polygon points="2166.0851 2933.803 2281.3698 2912.2738 2281.3698 3036.1722 2166.0851 3060.7632" />
   <polygon points="2313.1315 2906.3424 2480.1726 2875.1477 2480.1726 2993.7661 2313.1315 3029.3972" />
   <polygon points="2502.5267 2870.9731 2610.7483 2850.7629 2610.7483 2965.9133 2502.5267 2988.9978" />
</g>

<!-- Кран -->

<line
   x1="2396.7652" x2="2396.7652" y1="1028.8279" y2="1314.7726"
   stroke="#000000"
   stroke-width="12" />

<line
   x1="2540.639" x2="2540.639" y1="1028.8279" y2="1337.7484"
   stroke="#000000"
   stroke-width="12"/>

<line x1="2396.783" x2="2540.6933" y1="1292.5631" y2="1292.5631"
   stroke="#000000"
   stroke-width="7"/>

<line x1="2396.783" x2="2540.6933" y1="1187.1881" y2="1187.1881"
   stroke="#000000"
   stroke-width="7"/>

<line x1="2396.783" x2="2540.6933" y1="1083.0662" y2="1083.0662"
   stroke="#000000"
   stroke-width="7"/>

<polyline points="2396.783 1316.8338 2396.783 1292.5631 2540.6716 1187.1881 2396.783 1083.0662 2462.134 1028.8279"
   stroke="#000000"
   stroke-width="7"
   fill="none"
   stroke-linecap="round"/>

<!-- Кабинка -->

<polygon
   points="2366.1498 834.0879 2592.634 834.0879 2552.0776 1028.8279 2366.1498 1028.8279" 
   fill="#000000"/>

<rect x="2463.4549" y="868.9729" width="70.0042" height="59.0311" fill="#ffffff" />

<!-- __________________________________________________________________________  -->

<g>
<line x1="2396.7652" x2="2396.7652" y1="834.0879" y2="773.5307"
   stroke="#000000"
   stroke-width="12"/>

<line x1="2540.639" x2="2540.639" y1="834.0879" y2="773.5307"
   stroke="#000000"
   stroke-width="12"/>

<line x1="2396.7652" x2="2463.3668" y1="773.5307" y2="834.0879"
   stroke="#000000"
   stroke-width="7"
   stroke-linecap="round"/>

<line x1="2490.9637" x2="2441.6566" y1="773.5307" y2="834.0879"
   stroke="#000000"
   stroke-width="7"
   stroke-linecap="round"/>

<rect x="2317.0628" y="704.5619" width="269.3678" height="68.9688" fill="#000000"/>

<line x1="0" x2="100" y1="0" y2="100" />

<path d="M2435.2715 372.2191
         L 2426.5078 278.8391
         A 48.0536 35.0443 0 1 1 2508.2639 275.1004
         L 2498.4997 372.2191 
         h -18.9519
         L 2474.1381 299.9654
         A 6.4274 6.8093 0 1 0 2461.3358 299.8059
         L 2454.3815 372.2191
         z"
         fill="#000000"/>

<line x1="2398.2491" x2="2445.5332" y1="704.5619" y2="258.5044"
   stroke="#000000"
   stroke-width="12"
   stroke-linecap="round"/>

<line x1="2483.5843" x2="2533.2581" y1="258.5044" y2="704.5619"
   stroke="#000000"
   stroke-width="12"
   stroke-linecap="round"/>

<line x1="2435.2715" x2="2498.4997" y1="372.2191" y2="372.2191"
   stroke="#000000"
   stroke-width="7"
   stroke-linecap="round"/>

<polyline points="2506.3564 704.5619 2408.9722 603.4048 2511.3098 488.6795 2430.8905 396.6375 2457.5073 372.2191"
   stroke="#000000"
   stroke-width="7"
   fill="none"
   stroke-linecap="round"/>

<rect x="1922.2021" y="622.7189" width="394.8607" height="124.4147" stroke="#000000" stroke-width="12" fill="none" />

<line x1="1922.2021" x2="2317.0628" y1="679.2153" y2="679.2153"
   stroke="#000000"
   stroke-width="7"/>

<line x1="2048.7523" x2="2048.7523" y1="622.7189" y2="747.1336"
   stroke="#000000"
   stroke-width="7"/>

<line x1="2174.1627" x2="2174.1627" y1="622.7189" y2="747.1336"
   stroke="#000000"
   stroke-width="7"/>

<path d="M1993.2598 747.1336
   v -64.6023
   A 76.2416 37.9692 0 1 1 2145.7431 682.5313
   L 2145.7431 747.1336
   z"
   fill="#000000"/>

<line x1="2586.4306" x2="3762.2206" y1="739.0463" y2="757.1205"
   stroke="#000000"
   stroke-width="12"/>

<line x1="3997.2441" x2="4351.4087" y1="761.763" y2="767.4657"
   stroke="#000000"
   stroke-width="12"/>

<line x1="3781.4875" x2="3997.2441" y1="759.8322" y2="761.763"
   stroke="#000000"
   stroke-width="12"/>

<polyline points="4351.4087 767.4657 4261.3596 660.0264 2690.6305 637.9323 2616.8204 739.0463"
   stroke="#000000"
   stroke-width="12"
   fill="none"/>

<polyline points="2690.6305 637.9323  2760.9608 741.8566 2833.2113 639.9379 2889.6508 743.9287 2957.8672 641.6913 3022.7661 746.0721 3091.2958 643.5681 3141.9739 747.9916 3217.5414 645.3439 3289.8031 750.3719 3363.3871 647.3954 3440.4757 752.798 3507.4998 649.4225 3573.7472 754.9439 3647.0619 651.3856 3718.8429 756.3012 3781.466 653.2762 3859.4602 759.5445 3922.653 655.2621 4020.723 762.3337 4094.8246 655.2621 4189.4466 764.8578 4261.3596 660.0264"
   stroke="#000000"
   stroke-width="7"
   fill="none"/>

<path d="M3708.9229 743.3553
      h 124.4775 
      v 78.2698 
      h -39.1223 
      A 22.856 15.4328 0 1 0 3748.5661 821.6251
      h -39.6433
      z"
      fill="#000000"/>

<path d="M3230.2645 645.5229
      L 3265.2915 592.4875
      A 8.2555 10.4786 0 0 1 3277.7002 592.1338
      L 3317.1894 646.7456
      z"
      fill="#000000"/>

<path d="M4177.2987 658.844
      L 4209.9352 609.4279
      A 8.2555 10.4786 0 0 1 4222.3439 609.0742
      L 4259.1645 659.9955
      z"
      fill="#000000"/>

<line x1="2028.854" x2="2028.854" y1="747.1336" y2="1346.1785"
   stroke="#000000"
   stroke-width="7"/>

<line x1="2010.5059" x2="2426.5078" y1="667.5528" y2="278.8391"
   stroke="#000000"
   stroke-width="7"/>

<line x1="3266.2372" x2="2484.2139" y1="619.9688" y2="264.158"
   stroke="#000000"
   stroke-width="7"/>

<line x1="2484.8847" x2="4217.8379" y1="270.1816" y2="634.7815"
   stroke="#000000"
   stroke-width="7"/>

<polygon
   points="3699.1875 1788.1005 3769.0371 1828.7939 3838.8867 1788.1005"
   fill="#000000"/>

<line x1="3769.0371" x2="3769.0371" y1="1828.7939" y2="1852.1345"
   stroke="#000000"
   stroke-width="12"
   stroke-linecap="round"/>

<line x1="3769.0371" x2="3746.8614" y1="1852.1345" y2="1881.5868"
   stroke="#000000"
   stroke-width="12"
   stroke-linecap="round"/>

<path d="M3745.4107 1891.933 A 20.5716 20.5716 0 0 1 3746.8614 1881.5868"
   stroke="#000000"
   stroke-width="12"
   stroke-linecap="round"/>

<line x1="2766.5196" x2="4967.7393" y1="1891.933" y2="1891.933"
   stroke="#000000"
   stroke-width="35"
   stroke-linecap="round"/>

<line x1="2766.5196" x2="4967.7393" y1="2673.4546" y2="2673.4546"
   stroke="#000000"
   stroke-width="35"
   stroke-linecap="round"/>

<line x1="3714.7039" x2="3714.7039" y1="821.6251" y2="1788.1005"
   stroke="#000000"
   stroke-width="7"/>

<line x1="3827.6618" x2="3827.6618" y1="821.6251" y2="1788.1005"
   stroke="#000000"
   stroke-width="7"/>

<text x="2846.4403" y="2554.4989" fill="#065b98" font-size="800" font-family="FArial, Helvetica Neue, Helvetica, sans-serif" font-weight="800" textLength="2050" lengthAdjust="spacingAndGlyphs">
   БСП+
</text>

<text x="458.2982" y="4003.2886" fill="#5589a1" font-size="461" font-family="Arial, Helvetica Neue, Helvetica, sans-serif" textLength="4700" lengthAdjust="spacingAndGlyphs">
   ООО "БрянскСтройПодряд+"
</text>

</g>

</svg>

