<?xml version="1.0" encoding="UTF-8" standalone="no"?>
<svg
   xmlns:dc="http://purl.org/dc/elements/1.1/"
   xmlns:cc="http://creativecommons.org/ns#"
   xmlns:rdf="http://www.w3.org/1999/02/22-rdf-syntax-ns#"
   xmlns:svg="http://www.w3.org/2000/svg"
   xmlns="http://www.w3.org/2000/svg"
   xmlns:sodipodi="http://sodipodi.sourceforge.net/DTD/sodipodi-0.dtd"
   xmlns:inkscape="http://www.inkscape.org/namespaces/inkscape"
   width="4361.2471"
   height="3184.2678"
   version="1.1"
   id="svg2516"
   sodipodi:docname="logo.svg"
   inkscape:version="1.0.2 (e86c870879, 2021-01-15)">
  <metadata
     id="metadata2520">
    <rdf:RDF>
      <cc:Work
         rdf:about="">
        <dc:format>image/svg+xml</dc:format>
        <dc:type
           rdf:resource="http://purl.org/dc/dcmitype/StillImage" />
        <dc:title>logo_bsp</dc:title>
      </cc:Work>
    </rdf:RDF>
  </metadata>
  <sodipodi:namedview
     pagecolor="#ffffff"
     bordercolor="#666666"
     borderopacity="1"
     objecttolerance="10"
     gridtolerance="10"
     guidetolerance="10"
     inkscape:pageopacity="0"
     inkscape:pageshadow="2"
     inkscape:window-width="1898"
     inkscape:window-height="1019"
     id="namedview2518"
     showgrid="false"
     inkscape:zoom="0.12671818"
     inkscape:cx="3067.7458"
     inkscape:cy="1821.4195"
     inkscape:window-x="1290"
     inkscape:window-y="49"
     inkscape:window-maximized="0"
     inkscape:current-layer="g2514"
     inkscape:document-rotation="0" />
  <title
     id="title2314">logo_bsp</title>
  <defs
     id="defs2316" />
  <!-- Первый дом -->
  <polygon
     points="1310.6043,3407.3801 624.4922,3257.7162 624.4922,1061.0326 1310.6043,946.0306 1717.0424,1054.4901 1717.0424,3240.9944 "
     fill="#000000"
     stroke="#000000"
     id="polygon2318"
     transform="translate(-623.9922,-223.63402)" />
  <g
     fill="#ffffff"
     id="g2368"
     transform="translate(-623.9922,-223.63402)">
    <polygon
       points="650.3615,1203.1727 783.4722,1184.2698 783.4722,1345.3255 650.3615,1360.5659 "
       id="polygon2320" />
    <polygon
       points="823.6769,1178.5604 1046.6762,1146.8926 1046.6762,1315.1901 823.6769,1340.7223 "
       id="polygon2322" />
    <polygon
       points="1085.963,1141.3136 1257.6568,1116.9316 1257.6568,1291.034 1085.963,1310.692 "
       id="polygon2324" />
    <polygon
       points="650.3615,1485.9024 783.4722,1474.3936 783.4722,1628.0558 650.3615,1636.867 "
       id="polygon2326" />
    <polygon
       points="823.6769,1470.9175 1046.6762,1451.6369 1046.6762,1610.6332 823.6769,1625.3945 "
       id="polygon2328" />
    <polygon
       points="1085.963,1448.2401 1257.6568,1433.3955 1257.6568,1596.6676 1085.963,1608.0327 "
       id="polygon2330" />
    <polygon
       points="650.3615,1755.9785 783.4722,1749.9389 783.4722,1896.9387 650.3615,1899.6354 "
       id="polygon2332" />
    <polygon
       points="823.6769,1748.1147 1046.6762,1737.9967 1046.6762,1891.6062 823.6769,1896.1241 "
       id="polygon2334" />
    <polygon
       points="1085.963,1736.2142 1257.6568,1728.4241 1257.6568,1887.3319 1085.963,1890.8103 "
       id="polygon2336" />
    <polygon
       points="650.3615,2020.2408 783.4722,2020.3505 783.4722,2177.7382 650.3615,2174.0496 "
       id="polygon2338" />
    <polygon
       points="823.6769,2020.3836 1046.6762,2020.5672 1046.6762,2185.0318 823.6769,2178.8523 "
       id="polygon2340" />
    <polygon
       points="1085.963,2020.5995 1257.6568,2020.7409 1257.6568,2190.8783 1085.963,2186.1205 "
       id="polygon2342" />
    <polygon
       points="650.3615,2279.3956 783.4722,2285.5355 783.4722,2443.2483 650.3615,2433.5219 "
       id="polygon2344" />
    <polygon
       points="823.6769,2287.39 1046.6762,2297.6761 1046.6762,2462.4804 823.6769,2446.186 "
       id="polygon2346" />
    <polygon
       points="1085.963,2299.4883 1257.6568,2307.4079 1257.6568,2477.8966 1085.963,2465.351 "
       id="polygon2348" />
    <polygon
       points="650.3615,2548.0598 783.4722,2560.4513 783.4722,2713.3589 650.3615,2697.4902 "
       id="polygon2350" />
    <polygon
       points="823.6769,2564.194 1046.6762,2584.9534 1046.6762,2744.7364 823.6769,2718.1518 "
       id="polygon2352" />
    <polygon
       points="1085.963,2588.6107 1257.6568,2604.5939 1257.6568,2769.8881 1085.963,2749.4199 "
       id="polygon2354" />
    <polygon
       points="650.3615,2820.2954 783.4722,2839.0216 783.4722,2992.6803 650.3615,2970.4599 "
       id="polygon2356" />
    <polygon
       points="823.6769,2844.6776 1046.6762,2876.0495 1046.6762,3036.6173 823.6769,2999.3917 "
       id="polygon2358" />
    <polygon
       points="1085.963,2881.5764 1257.6568,2905.7305 1257.6568,3071.8366 1085.963,3043.1755 "
       id="polygon2360" />
    <polygon
       points="650.3615,3084.5743 783.4722,3109.45 783.4722,3259.6492 650.3615,3231.3579 "
       id="polygon2362" />
    <polygon
       points="823.6769,3116.9634 1046.6762,3158.6375 1046.6762,3315.5904 823.6769,3268.1943 "
       id="polygon2364" />
    <polygon
       points="1085.963,3165.9794 1257.6568,3198.0656 1257.6568,3360.432 1085.963,3323.9403 "
       id="polygon2366" />
  </g>
  <!-- Второй дом -->
  <polygon
     points="2134.2313,3094.5482 1807.6728,2976.9846 1807.6728,1348.0504 2134.2313,1272.8585 2630.748,1352.1234 2630.748,2985.8527 "
     fill="#000000"
     stroke="#000000"
     id="polygon2370"
     transform="translate(-623.9922,-223.63402)" />
  <g
     fill="#ffffff"
     id="g2420"
     transform="translate(-623.9922,-223.63402)">
    <polygon
       points="2166.0851,1401.3646 2281.3698,1416.7924 2281.3698,1548.1574 2166.0851,1535.976 "
       id="polygon2372" />
    <polygon
       points="2313.1315,1421.0428 2480.1726,1443.3968 2480.1726,1569.1637 2313.1315,1551.5135 "
       id="polygon2374" />
    <polygon
       points="2502.5267,1446.3883 2610.7483,1460.8709 2610.7483,1582.9608 2502.5267,1571.5257 "
       id="polygon2376" />
    <polygon
       points="2166.0851,1628.2118 2281.3698,1638.1688 2281.3698,1772.1116 2166.0851,1765.4646 "
       id="polygon2378" />
    <polygon
       points="2313.1315,1640.912 2480.1726,1655.3392 2480.1726,1783.574 2313.1315,1773.9429 "
       id="polygon2380" />
    <polygon
       points="2502.5267,1657.2699 2610.7483,1666.6169 2610.7483,1791.1026 2502.5267,1784.8629 "
       id="polygon2382" />
    <polygon
       points="2166.0851,1838.7755 2281.3698,1843.6545 2281.3698,1968.8557 2166.0851,1967.0707 "
       id="polygon2384" />
    <polygon
       points="2313.1315,1844.9986 2480.1726,1852.068 2480.1726,1971.9337 2313.1315,1969.3474 "
       id="polygon2386" />
    <polygon
       points="2502.5267,1853.0141 2610.7483,1857.5941 2610.7483,1973.9554 2502.5267,1972.2798 "
       id="polygon2388" />
    <polygon
       points="2166.0851,2070.8562 2281.3698,2070.1382 2281.3698,2194.3972 2166.0851,2198.1859 "
       id="polygon2390" />
    <polygon
       points="2313.1315,2069.9404 2480.1726,2068.9 2480.1726,2187.8637 2313.1315,2193.3534 "
       id="polygon2392" />
    <polygon
       points="2502.5267,2068.7608 2610.7483,2068.0868 2610.7483,2183.5724 2502.5267,2187.1291 "
       id="polygon2394" />
    <polygon
       points="2166.0851,2284.2097 2281.3698,2278.3464 2281.3698,2403.0295 2166.0851,2411.9741 "
       id="polygon2396" />
    <polygon
       points="2313.1315,2276.731 2480.1726,2268.2354 2480.1726,2387.6051 2313.1315,2400.5652 "
       id="polygon2398" />
    <polygon
       points="2502.5267,2267.0984 2610.7483,2261.5943 2610.7483,2377.4741 2502.5267,2385.8707 "
       id="polygon2400" />
    <polygon
       points="2166.0851,2506.6301 2281.3698,2495.4028 2281.3698,2619.159 2166.0851,2633.4446 "
       id="polygon2402" />
    <polygon
       points="2313.1315,2492.3096 2480.1726,2476.0418 2480.1726,2594.5241 2313.1315,2615.2232 "
       id="polygon2404" />
    <polygon
       points="2502.5267,2473.8648 2610.7483,2463.3254 2610.7483,2578.3436 2502.5267,2591.754 "
       id="polygon2406" />
    <polygon
       points="2166.0851,2719.6193 2281.3698,2703.2555 2281.3698,2832.8427 2166.0851,2852.409 "
       id="polygon2408" />
    <polygon
       points="2313.1315,2698.7471 2480.1726,2675.0368 2480.1726,2799.1016 2313.1315,2827.4521 "
       id="polygon2410" />
    <polygon
       points="2502.5267,2671.8637 2610.7483,2656.5024 2610.7483,2776.9401 2502.5267,2795.3076 "
       id="polygon2412" />
    <polygon
       points="2166.0851,2933.803 2281.3698,2912.2738 2281.3698,3036.1722 2166.0851,3060.7632 "
       id="polygon2414" />
    <polygon
       points="2313.1315,2906.3424 2480.1726,2875.1477 2480.1726,2993.7661 2313.1315,3029.3972 "
       id="polygon2416" />
    <polygon
       points="2502.5267,2870.9731 2610.7483,2850.7629 2610.7483,2965.9133 2502.5267,2988.9978 "
       id="polygon2418" />
  </g>
  <!-- Кран -->
  <line
     x1="1772.7729"
     x2="1772.7729"
     y1="805.19385"
     y2="1091.1385"
     stroke="#000000"
     stroke-width="12"
     id="line2422" />
  <line
     x1="1916.6466"
     x2="1916.6466"
     y1="805.19385"
     y2="1114.1144"
     stroke="#000000"
     stroke-width="12"
     id="line2424" />
  <line
     x1="1772.7908"
     x2="1916.701"
     y1="1068.9291"
     y2="1068.9291"
     stroke="#000000"
     stroke-width="7"
     id="line2426" />
  <line
     x1="1772.7908"
     x2="1916.701"
     y1="963.55408"
     y2="963.55408"
     stroke="#000000"
     stroke-width="7"
     id="line2428" />
  <line
     x1="1772.7908"
     x2="1916.701"
     y1="859.43213"
     y2="859.43213"
     stroke="#000000"
     stroke-width="7"
     id="line2430" />
  <polyline
     points="2396.783 1316.8338 2396.783 1292.5631 2540.6716 1187.1881 2396.783 1083.0662 2462.134 1028.8279"
     stroke="#000000"
     stroke-width="7"
     fill="none"
     stroke-linecap="round"
     id="polyline2432"
     transform="translate(-623.9922,-223.63402)" />
  <!-- Кабинка -->
  <polygon
     points="2366.1498,834.0879 2592.634,834.0879 2552.0776,1028.8279 2366.1498,1028.8279 "
     fill="#000000"
     id="polygon2434"
     transform="translate(-623.9922,-223.63402)" />
  <rect
     x="1839.4626"
     y="645.33887"
     width="70.004204"
     height="59.031101"
     fill="#ffffff"
     id="rect2436" />
  <!-- __________________________________________________________________________  -->
  <g
     id="g2514"
     transform="translate(-623.9922,-223.63402)">
    <line
       x1="2396.7651"
       x2="2396.7651"
       y1="834.08789"
       y2="773.5307"
       stroke="#000000"
       stroke-width="12"
       id="line2438" />
    <line
       x1="2540.6389"
       x2="2540.6389"
       y1="834.08789"
       y2="773.5307"
       stroke="#000000"
       stroke-width="12"
       id="line2440" />
    <line
       x1="2396.7651"
       x2="2463.3667"
       y1="773.5307"
       y2="834.08789"
       stroke="#000000"
       stroke-width="7"
       stroke-linecap="round"
       id="line2442" />
    <line
       x1="2490.9636"
       x2="2441.6565"
       y1="773.5307"
       y2="834.08789"
       stroke="#000000"
       stroke-width="7"
       stroke-linecap="round"
       id="line2444" />
    <rect
       x="2317.0627"
       y="704.56189"
       width="269.3678"
       height="68.968803"
       fill="#000000"
       id="rect2446" />
    <line
       x1="0"
       x2="100"
       y1="0"
       y2="100"
       id="line2448" />
    <path
       d="m 2435.2715,372.2191 -8.7637,-93.38 a 48.0536,35.0443 0 1 1 81.7561,-3.7387 l -9.7642,97.1187 h -18.9519 l -5.4097,-72.2537 a 6.4274,6.8093 0 1 0 -12.8023,-0.1595 l -6.9543,72.4132 z"
       fill="#000000"
       id="path2450" />
    <line
       x1="2398.249"
       x2="2445.5332"
       y1="704.56189"
       y2="258.50439"
       stroke="#000000"
       stroke-width="12"
       stroke-linecap="round"
       id="line2452" />
    <line
       x1="2483.5842"
       x2="2533.2581"
       y1="258.50439"
       y2="704.56189"
       stroke="#000000"
       stroke-width="12"
       stroke-linecap="round"
       id="line2454" />
    <line
       x1="2435.2715"
       x2="2498.4998"
       y1="372.21909"
       y2="372.21909"
       stroke="#000000"
       stroke-width="7"
       stroke-linecap="round"
       id="line2456" />
    <polyline
       points="2506.3564 704.5619 2408.9722 603.4048 2511.3098 488.6795 2430.8905 396.6375 2457.5073 372.2191"
       stroke="#000000"
       stroke-width="7"
       fill="none"
       stroke-linecap="round"
       id="polyline2458" />
    <rect
       x="1922.2021"
       y="622.71887"
       width="394.86069"
       height="124.4147"
       stroke="#000000"
       stroke-width="12"
       fill="none"
       id="rect2460" />
    <line
       x1="1922.2021"
       x2="2317.0627"
       y1="679.21527"
       y2="679.21527"
       stroke="#000000"
       stroke-width="7"
       id="line2462" />
    <line
       x1="2048.7522"
       x2="2048.7522"
       y1="622.71887"
       y2="747.13361"
       stroke="#000000"
       stroke-width="7"
       id="line2464" />
    <line
       x1="2174.1626"
       x2="2174.1626"
       y1="622.71887"
       y2="747.13361"
       stroke="#000000"
       stroke-width="7"
       id="line2466" />
    <path
       d="m 1993.2598,747.1336 v -64.6023 a 76.24165,37.969225 0 1 1 152.4833,0 v 64.6023 z"
       fill="#000000"
       id="path2468" />
    <line
       x1="2586.4307"
       x2="3762.2207"
       y1="739.04633"
       y2="757.12048"
       stroke="#000000"
       stroke-width="12"
       id="line2470" />
    <line
       x1="3997.2441"
       x2="4351.4087"
       y1="761.763"
       y2="767.4657"
       stroke="#000000"
       stroke-width="12"
       id="line2472" />
    <line
       x1="3781.4875"
       x2="3997.2441"
       y1="759.83221"
       y2="761.763"
       stroke="#000000"
       stroke-width="12"
       id="line2474" />
    <polyline
       points="4351.4087 767.4657 4261.3596 660.0264 2690.6305 637.9323 2616.8204 739.0463"
       stroke="#000000"
       stroke-width="12"
       fill="none"
       id="polyline2476" />
    <polyline
       points="2690.6305 637.9323  2760.9608 741.8566 2833.2113 639.9379 2889.6508 743.9287 2957.8672 641.6913 3022.7661 746.0721 3091.2958 643.5681 3141.9739 747.9916 3217.5414 645.3439 3289.8031 750.3719 3363.3871 647.3954 3440.4757 752.798 3507.4998 649.4225 3573.7472 754.9439 3647.0619 651.3856 3718.8429 756.3012 3781.466 653.2762 3859.4602 759.5445 3922.653 655.2621 4020.723 762.3337 4094.8246 655.2621 4189.4466 764.8578 4261.3596 660.0264"
       stroke="#000000"
       stroke-width="7"
       fill="none"
       id="polyline2478" />
    <path
       d="m 3708.9229,743.3553 h 124.4775 v 78.2698 h -39.1223 a 22.856,15.4328 0 1 0 -45.712,0 h -39.6433 z"
       fill="#000000"
       id="path2480" />
    <path
       d="m 3230.2645,645.5229 35.027,-53.0354 a 8.2555,10.4786 0 0 1 12.4087,-0.3537 l 39.4892,54.6118 z"
       fill="#000000"
       id="path2482" />
    <path
       d="m 4177.2987,658.844 32.6365,-49.4161 a 8.2555,10.4786 0 0 1 12.4087,-0.3537 l 36.8206,50.9213 z"
       fill="#000000"
       id="path2484" />
    <line
       x1="2028.854"
       x2="2028.854"
       y1="747.13361"
       y2="1346.1785"
       stroke="#000000"
       stroke-width="7"
       id="line2486" />
    <line
       x1="2010.5059"
       x2="2426.5078"
       y1="667.5528"
       y2="278.83911"
       stroke="#000000"
       stroke-width="7"
       id="line2488" />
    <line
       x1="3266.2373"
       x2="2484.2139"
       y1="619.96881"
       y2="264.15799"
       stroke="#000000"
       stroke-width="7"
       id="line2490" />
    <line
       x1="2484.8848"
       x2="4217.8379"
       y1="270.18161"
       y2="634.78149"
       stroke="#000000"
       stroke-width="7"
       id="line2492" />
    <polygon
       points="3769.0371,1828.7939 3838.8867,1788.1005 3699.1875,1788.1005 "
       fill="#000000"
       id="polygon2494" />
    <line
       x1="3769.0371"
       x2="3769.0371"
       y1="1828.7939"
       y2="1852.1345"
       stroke="#000000"
       stroke-width="12"
       stroke-linecap="round"
       id="line2496" />
    <line
       x1="3769.0371"
       x2="3746.8613"
       y1="1852.1345"
       y2="1881.5868"
       stroke="#000000"
       stroke-width="12"
       stroke-linecap="round"
       id="line2498" />
    <path
       d="m 3745.4107,1891.933 a 20.5716,20.5716 0 0 1 1.4507,-10.3462"
       stroke="#000000"
       stroke-width="12"
       stroke-linecap="round"
       id="path2500" />
    <line
       x1="2766.5195"
       x2="4967.7393"
       y1="1891.933"
       y2="1891.933"
       stroke="#000000"
       stroke-width="35"
       stroke-linecap="round"
       id="line2502" />
    <line
       x1="2766.5195"
       x2="4967.7393"
       y1="2673.4546"
       y2="2673.4546"
       stroke="#000000"
       stroke-width="35"
       stroke-linecap="round"
       id="line2504" />
    <line
       x1="3714.7039"
       x2="3714.7039"
       y1="821.62512"
       y2="1788.1005"
       stroke="#000000"
       stroke-width="7"
       id="line2506" />
    <line
       x1="3827.6619"
       x2="3827.6619"
       y1="821.62512"
       y2="1788.1005"
       stroke="#000000"
       stroke-width="7"
       id="line2508" />
    <text
       x="2846.4402"
       y="2554.4988"
       fill="#065b98"
       font-size="800px"
       font-family="Ubuntu, sans-serif"
       font-weight="700"
       textLength="2050"
       lengthAdjust="spacingAndGlyphs"
       id="text2510">БСП+</text>
    <!--
<rect x="0" y="0" width="5529px" height="4386px" stroke="navy" stroke-width="10" fill="none" />
-->
<!--   font-family="Arial, 'Helvetica Neue', Helvetica, sans-serif"-->
  </g>
</svg>
